<?xml version="1.0" encoding="UTF-8"?>
<svg version="1.1" xmlns="http://www.w3.org/2000/svg" width="258" height="98">
<path d="M0 0 C2.9375 0.5625 2.9375 0.5625 5.25 2 C7.66898998 5.67328108 7.75280637 9.24066914 7.9375 13.5625 C10.2475 13.5625 12.5575 13.5625 14.9375 13.5625 C14.9375 15.5425 14.9375 17.5225 14.9375 19.5625 C12.9575 19.5625 10.9775 19.5625 8.9375 19.5625 C8.97677612 20.6294812 8.97677612 20.6294812 9.0168457 21.71801758 C9.12069396 24.93678759 9.18578758 28.1552058 9.25 31.375 C9.3128418 33.05432617 9.3128418 33.05432617 9.37695312 34.76757812 C9.39306641 35.84072266 9.40917969 36.91386719 9.42578125 38.01953125 C9.45196533 39.00928955 9.47814941 39.99904785 9.50512695 41.01879883 C8.9375 43.5625 8.9375 43.5625 6.40698242 45.40893555 C5.59205322 45.78961182 4.77712402 46.17028809 3.9375 46.5625 C2.9375 45.5625 2.9375 45.5625 2.82397461 43.06225586 C2.83182983 41.43622437 2.83182983 41.43622437 2.83984375 39.77734375 C2.84467773 38.02260742 2.84467773 38.02260742 2.84960938 36.23242188 C2.86217773 34.38487305 2.86217773 34.38487305 2.875 32.5 C2.87951172 31.26443359 2.88402344 30.02886719 2.88867188 28.75585938 C2.90050392 25.69135883 2.91698827 22.62695279 2.9375 19.5625 C1.2875 19.5625 -0.3625 19.5625 -2.0625 19.5625 C-1.5675 20.635 -1.0725 21.7075 -0.5625 22.8125 C1.92923603 29.48086022 1.87691585 36.4833036 -0.1875 43.25 C-2.0625 45.5625 -2.0625 45.5625 -5.25 46.4375 C-6.178125 46.47875 -7.10625 46.52 -8.0625 46.5625 C-8.75 44.75 -8.75 44.75 -9.0625 42.5625 C-8.5778125 42.15 -8.093125 41.7375 -7.59375 41.3125 C-5.34296554 38.7401749 -5.76694907 36.72457883 -5.875 33.375 C-5.90207031 32.28832031 -5.92914063 31.20164062 -5.95703125 30.08203125 C-6.00923828 28.83486328 -6.00923828 28.83486328 -6.0625 27.5625 C-7.0525 31.0275 -7.0525 31.0275 -8.0625 34.5625 C-9.7125 34.8925 -11.3625 35.2225 -13.0625 35.5625 C-13.5575 32.5925 -13.5575 32.5925 -14.0625 29.5625 C-15.66935189 33.57962972 -14.49507376 36.62292217 -13.0625 40.5625 C-11.58488341 42.46420054 -11.58488341 42.46420054 -10.0625 43.5625 C-10.7225 44.5525 -11.3825 45.5425 -12.0625 46.5625 C-17.56898298 46.07303485 -17.56898298 46.07303485 -19.875 43.6875 C-22.59339862 38.82299721 -22.56621431 33.99914071 -22.0625 28.5625 C-20.67701845 25.53963116 -19.39378575 23.89378575 -17.0625 21.5625 C-14.37410615 21.29258094 -11.77108064 21.47512643 -9.0625 21.5625 C-8.7325 20.9025 -8.4025 20.2425 -8.0625 19.5625 C-14.0025 19.5625 -19.9425 19.5625 -26.0625 19.5625 C-26.01609375 21.26019531 -25.9696875 22.95789063 -25.921875 24.70703125 C-25.88436211 26.92966995 -25.84796144 29.15232762 -25.8125 31.375 C-25.77898437 32.49455078 -25.74546875 33.61410156 -25.7109375 34.76757812 C-25.69160156 36.37729492 -25.69160156 36.37729492 -25.671875 38.01953125 C-25.6404541 39.5041687 -25.6404541 39.5041687 -25.60839844 41.01879883 C-26.0625 43.5625 -26.0625 43.5625 -27.96191406 45.40893555 C-30.0625 46.5625 -30.0625 46.5625 -32.0625 46.5625 C-32.0625 44.5825 -32.0625 42.6025 -32.0625 40.5625 C-33.114375 40.81 -34.16625 41.0575 -35.25 41.3125 C-39.0625 41.5625 -39.0625 41.5625 -42 39.625 C-42.680625 38.944375 -43.36125 38.26375 -44.0625 37.5625 C-44.330625 38.67625 -44.59875 39.79 -44.875 40.9375 C-46.0625 44.5625 -46.0625 44.5625 -49.0625 46.5625 C-52.42742161 46.42229493 -54.35128106 46.24831826 -56.8125 43.875 C-60.32942314 37.36869219 -60.61609257 30.82249455 -61.0625 23.5625 C-59.4125 22.5725 -57.7625 21.5825 -56.0625 20.5625 C-55.0725 23.5325 -55.0725 23.5325 -54.0625 26.5625 C-54.0625 24.5825 -54.0625 22.6025 -54.0625 20.5625 C-57.6925 20.2325 -61.3225 19.9025 -65.0625 19.5625 C-65.00449219 21.26019531 -64.94648438 22.95789063 -64.88671875 24.70703125 C-64.83982785 26.92966009 -64.79432698 29.15231855 -64.75 31.375 C-64.70810547 32.49455078 -64.66621094 33.61410156 -64.62304688 34.76757812 C-64.60693359 35.84072266 -64.59082031 36.91386719 -64.57421875 38.01953125 C-64.54803467 39.00928955 -64.52185059 39.99904785 -64.49487305 41.01879883 C-65.0625 43.5625 -65.0625 43.5625 -67.59301758 45.40893555 C-68.40794678 45.78961182 -69.22287598 46.17028809 -70.0625 46.5625 C-71.0625 45.5625 -71.0625 45.5625 -71.16015625 41.74609375 C-71.15348089 40.16403318 -71.14151875 38.58198841 -71.125 37 C-71.12048828 36.19369141 -71.11597656 35.38738281 -71.11132812 34.55664062 C-71.09950518 32.55856244 -71.08156914 30.56052217 -71.0625 28.5625 C-71.7225 28.5625 -72.3825 28.5625 -73.0625 28.5625 C-72.5675 29.5525 -72.5675 29.5525 -72.0625 30.5625 C-71.5712975 34.81958833 -71.66157221 37.58392445 -74.25 41 C-77.0625 43.5625 -77.0625 43.5625 -79.625 44.25 C-82.0625 43.5625 -82.0625 43.5625 -84.375 41.625 C-86.65158298 37.49342349 -86.88431108 34.18417024 -86.0625 29.5625 C-84.0574912 25.7598971 -82.63563738 23.94459159 -79.0625 21.5625 C-76.73050612 21.48344936 -74.39417378 21.47451231 -72.0625 21.5625 C-71.7325 20.9025 -71.4025 20.2425 -71.0625 19.5625 C-77.0025 19.5625 -82.9425 19.5625 -89.0625 19.5625 C-89.01609375 21.26019531 -88.9696875 22.95789063 -88.921875 24.70703125 C-88.88436211 26.92966995 -88.84796144 29.15232762 -88.8125 31.375 C-88.76222656 33.05432617 -88.76222656 33.05432617 -88.7109375 34.76757812 C-88.69804687 35.84072266 -88.68515625 36.91386719 -88.671875 38.01953125 C-88.65092773 39.00928955 -88.62998047 39.99904785 -88.60839844 41.01879883 C-89.0625 43.5625 -89.0625 43.5625 -90.96191406 45.40893555 C-93.0625 46.5625 -93.0625 46.5625 -95.0625 46.5625 C-95.0625 37.6525 -95.0625 28.7425 -95.0625 19.5625 C-96.7125 19.5625 -98.3625 19.5625 -100.0625 19.5625 C-100.02322388 20.6294812 -100.02322388 20.6294812 -99.9831543 21.71801758 C-99.87930604 24.93678759 -99.81421242 28.1552058 -99.75 31.375 C-99.70810547 32.49455078 -99.66621094 33.61410156 -99.62304688 34.76757812 C-99.60693359 35.84072266 -99.59082031 36.91386719 -99.57421875 38.01953125 C-99.54803467 39.00928955 -99.52185059 39.99904785 -99.49487305 41.01879883 C-100.0625 43.5625 -100.0625 43.5625 -102.40551758 45.28393555 C-103.28232178 45.70586182 -104.15912598 46.12778809 -105.0625 46.5625 C-106.0525 47.2225 -107.0425 47.8825 -108.0625 48.5625 C-111.523352 49.10895032 -112.72959512 48.79796931 -115.625 46.75 C-116.429375 46.028125 -117.23375 45.30625 -118.0625 44.5625 C-118.825625 44.088125 -119.58875 43.61375 -120.375 43.125 C-122.0625 41.5625 -122.0625 41.5625 -122.5 39.0625 C-122.00165901 36.21483722 -121.29234785 35.32779621 -119.0625 33.5625 C-119.7225 32.9025 -120.3825 32.2425 -121.0625 31.5625 C-121.52626812 24.25815217 -121.52626812 24.25815217 -119.0625 20.5625 C-121.5375 19.5725 -121.5375 19.5725 -124.0625 18.5625 C-123.7325 16.9125 -123.4025 15.2625 -123.0625 13.5625 C-122.04994644 13.56472061 -121.03739288 13.56694122 -119.99415588 13.56922913 C-110.4731235 13.58946054 -100.95209545 13.60447214 -91.43104649 13.61431217 C-86.53564626 13.619541 -81.64026332 13.62663864 -76.74487305 13.63793945 C-72.02462022 13.64876834 -67.30438408 13.65477684 -62.5841198 13.65737724 C-60.77911046 13.65923149 -58.97410208 13.66285209 -57.16909981 13.66823006 C-54.64990356 13.67544052 -52.1307771 13.67649094 -49.61157227 13.67602539 C-48.48085045 13.6814183 -48.48085045 13.6814183 -47.32728577 13.68692017 C-43.90695769 13.98809536 -43.90695769 13.98809536 -41.0625 12.5625 C-38.61189255 12.54555725 -36.19329017 12.59127818 -33.74609375 12.68359375 C-32.64951195 12.71901024 -32.64951195 12.71901024 -31.53077698 12.75514221 C-29.18699544 12.83195084 -26.84353018 12.91590031 -24.5 13 C-22.91472922 13.05320352 -21.32944282 13.10594402 -19.74414062 13.15820312 C-15.85005868 13.28758904 -11.9562459 13.42338131 -8.0625 13.5625 C-8.10632813 12.304375 -8.15015625 11.04625 -8.1953125 9.75 C-8.31902081 6.19884368 -8.13932459 5.67095825 -5.9375 2.5625 C-3.0625 0.5625 -3.0625 0.5625 0 0 Z M-2.0625 6.5625 C-2.0625 8.8725 -2.0625 11.1825 -2.0625 13.5625 C-0.4125 13.5625 1.2375 13.5625 2.9375 13.5625 C2.2775 11.2525 1.6175 8.9425 0.9375 6.5625 C-0.0525 6.5625 -1.0425 6.5625 -2.0625 6.5625 Z M-39.0625 18.5625 C-38.0625 20.5625 -38.0625 20.5625 -38.0625 20.5625 Z M-112.0625 19.5625 C-109.2200146 21.13523568 -109.2200146 21.13523568 -106.0625 21.5625 C-106.0625 20.9025 -106.0625 20.2425 -106.0625 19.5625 C-108.0425 19.5625 -110.0225 19.5625 -112.0625 19.5625 Z M-47.0625 19.5625 C-47.0625 21.2125 -47.0625 22.8625 -47.0625 24.5625 C-46.0725 24.2325 -45.0825 23.9025 -44.0625 23.5625 C-44.3925 22.2425 -44.7225 20.9225 -45.0625 19.5625 C-45.7225 19.5625 -46.3825 19.5625 -47.0625 19.5625 Z M-38.0625 31.5625 C-37.7325 32.8825 -37.4025 34.2025 -37.0625 35.5625 C-35.4125 35.2325 -33.7625 34.9025 -32.0625 34.5625 C-32.0625 32.5825 -32.0625 30.6025 -32.0625 28.5625 C-34.21768172 28.5625 -36.2786657 30.46475582 -38.0625 31.5625 Z M-50.75 31.5625 C-52.3896875 32.5525 -52.3896875 32.5525 -54.0625 33.5625 C-53.72022428 36.53315509 -53.72022428 36.53315509 -53.0625 39.5625 C-52.4025 39.8925 -51.7425 40.2225 -51.0625 40.5625 C-50.7325 39.2425 -50.4025 37.9225 -50.0625 36.5625 C-48.0825 36.2325 -46.1025 35.9025 -44.0625 35.5625 C-44.0625 33.5825 -44.0625 31.6025 -44.0625 29.5625 C-47.2368622 29.5625 -48.12542462 29.97785071 -50.75 31.5625 Z M-80.0625 30.5625 C-79.7325 32.8725 -79.4025 35.1825 -79.0625 37.5625 C-78.4025 37.5625 -77.7425 37.5625 -77.0625 37.5625 C-77.63702746 33.63174356 -77.63702746 33.63174356 -80.0625 30.5625 Z M-116.0625 34.5625 C-114.7425 35.8825 -113.4225 37.2025 -112.0625 38.5625 C-111.7325 37.2425 -111.4025 35.9225 -111.0625 34.5625 C-112.7125 34.5625 -114.3625 34.5625 -116.0625 34.5625 Z M-107.0625 39.5625 C-107.3925 40.5525 -107.7225 41.5425 -108.0625 42.5625 C-107.4025 42.5625 -106.7425 42.5625 -106.0625 42.5625 C-106.3925 41.5725 -106.7225 40.5825 -107.0625 39.5625 Z " fill="#4B8FBF" transform="translate(241.0625,12.4375)"/>
<path d="M0 0 C4.86675908 3.00312048 9.66756816 6.82921356 11.4375 12.375 C11.458125 13.055625 11.47875 13.73625 11.5 14.4375 C9.85 15.0975 8.2 15.7575 6.5 16.4375 C7.49 20.0675 8.48 23.6975 9.5 27.4375 C11.15 27.4375 12.8 27.4375 14.5 27.4375 C16.45389498 33.29918495 13.01079593 40.21561322 10.46875 45.63671875 C7.1619867 50.89211042 2.32296011 54.41859047 -3.5 56.4375 C-11.29756482 57.75423433 -20.02023296 58.12659255 -26.875 53.75 C-32.57879522 48.98015955 -37.57017213 42.66139097 -38.90405273 35.16748047 C-39.07108439 32.78483035 -39.10701183 30.45049957 -39.0625 28.0625 C-39.05081787 27.22614014 -39.03913574 26.38978027 -39.02709961 25.52807617 C-38.69011611 16.0934563 -35.88026354 10.40425855 -29 3.9375 C-21.36217698 -2.6245733 -9.32366967 -4.26800596 0 0 Z M-15.5 4.4375 C-15.5 4.7675 -15.5 5.0975 -15.5 5.4375 C-13.19 5.4375 -10.88 5.4375 -8.5 5.4375 C-8.5 5.1075 -8.5 4.7775 -8.5 4.4375 C-10.81 4.4375 -13.12 4.4375 -15.5 4.4375 Z " fill="#C1F8FE" transform="translate(39.5,3.5625)"/>
<path d="M0 0 C4.86153758 2.99989846 9.59344341 6.8311498 11.5 12.3125 C11.5 13.01375 11.5 13.715 11.5 14.4375 C10.5 15.4375 10.5 15.4375 8.1875 15.8125 C4.40351515 15.28450211 3.81805172 13.41785221 1.5 10.4375 C-3.82186662 5.64652518 -8.63810342 4.89504237 -15.66796875 4.96875 C-20.79928564 5.81807142 -24.68215899 9.03239856 -28.5 12.4375 C-33.21341322 19.27194916 -31.59759785 29.61882797 -31.5 37.4375 C-30.84 37.4375 -30.18 37.4375 -29.5 37.4375 C-25.5 42.84926471 -25.5 42.84926471 -25.5 45.4375 C-19.36726014 48.03926842 -13.20514785 50.47795398 -6.5 49.4375 C-0.38771498 45.92994085 3.52583718 41.77375991 6.5 35.4375 C5.96375 35.72625 5.4275 36.015 4.875 36.3125 C-3.56487683 40.3103364 -13.1001011 40.89160149 -22.19921875 38.82421875 C-25.25717086 37.72199941 -27.7975033 36.23916446 -30.5 34.4375 C-30.5 33.7775 -30.5 33.1175 -30.5 32.4375 C-28.375 31.25 -28.375 31.25 -25.5 30.4375 C-24.59636719 30.90542969 -23.69273438 31.37335937 -22.76171875 31.85546875 C-15.92760545 35.17021831 -7.82659063 34.38359458 -0.66796875 32.34765625 C4.7954048 30.55096926 4.7954048 30.55096926 9.5 27.4375 C11.16617115 27.39686168 12.83388095 27.394779 14.5 27.4375 C16.45389498 33.29918495 13.01079593 40.21561322 10.46875 45.63671875 C7.1619867 50.89211042 2.32296011 54.41859047 -3.5 56.4375 C-11.29756482 57.75423433 -20.02023296 58.12659255 -26.875 53.75 C-32.57879522 48.98015955 -37.57017213 42.66139097 -38.90405273 35.16748047 C-39.07108439 32.78483035 -39.10701183 30.45049957 -39.0625 28.0625 C-39.05081787 27.22614014 -39.03913574 26.38978027 -39.02709961 25.52807617 C-38.69011611 16.0934563 -35.88026354 10.40425855 -29 3.9375 C-21.36217698 -2.6245733 -9.32366967 -4.26800596 0 0 Z " fill="#FFCA12" transform="translate(39.5,3.5625)"/>
<path d="M0 0 C25.41 0 50.82 0 77 0 C77 0.66 77 1.32 77 2 C76.01 2.33 75.02 2.66 74 3 C73.96261719 3.60328125 73.92523438 4.2065625 73.88671875 4.828125 C73.21160043 13.03544576 73.21160043 13.03544576 70 16 C68.515 16.495 68.515 16.495 67 17 C67.56739868 21.12973628 67.56739868 21.12973628 69 25 C71.02463255 25.65213292 71.02463255 25.65213292 73 26 C73 24.35 73 22.7 73 21 C73.99 21 74.98 21 76 21 C76.20086443 24.71599191 76.1519437 25.77208445 74 29 C71.0625 29.4375 71.0625 29.4375 68 29 C64.48629847 25.98825583 63.67166133 21.42370051 63 17 C62.85534721 13.99028867 62.87458715 11.00990842 63 8 C64.485 7.505 64.485 7.505 66 7 C66 8.98 66 10.96 66 13 C66.99 12.67 67.98 12.34 69 12 C69 9.03 69 6.06 69 3 C64.71 2.67 60.42 2.34 56 2 C56 10.25 56 18.5 56 27 C54.02 27.99 54.02 27.99 52 29 C52 23.39 52 17.78 52 12 C46.99796919 11.90757327 46.99796919 11.90757327 42 12 C40.67868182 13.09631369 40.67868182 13.09631369 40.875 15.8125 C40.97758272 18.42835942 41.23671883 20.5193362 42 23 C43.32 23 44.64 23 46 23 C45.34 19.7 44.68 16.4 44 13 C45.32 13.33 46.64 13.66 48 14 C49.56659619 20.02536998 49.56659619 20.02536998 47.953125 22.80078125 C46.70838944 24.26579304 45.35934288 25.64065712 44 27 C42.1875 26.8125 42.1875 26.8125 40 26 C37.86970203 23.33712754 37.06525072 21.43811195 36.5625 18.0625 C37.15235199 13.93353607 39.04904319 10.95095681 42 8 C43.68608966 7.92794489 45.37500659 7.91613932 47.0625 7.9375 C47.98160156 7.94652344 48.90070313 7.95554687 49.84765625 7.96484375 C50.55792969 7.97644531 51.26820313 7.98804688 52 8 C52 6.35 52 4.7 52 3 C45.4 3 38.8 3 32 3 C32 10.92 32 18.84 32 27 C30.02 27.99 30.02 27.99 28 29 C28 20.09 28 11.18 28 2 C26.02 2.33 24.04 2.66 22 3 C21.67 10.92 21.34 18.84 21 27 C20.01 27.33 19.02 27.66 18 28 C18 22.39 18 16.78 18 11 C15.69 11.33 13.38 11.66 11 12 C7.5625 11.0625 7.5625 11.0625 5 10 C5.33 10.99 5.66 11.98 6 13 C7.299375 13.144375 8.59875 13.28875 9.9375 13.4375 C13.875 13.875 13.875 13.875 15 15 C15.59479554 22.25650558 15.59479554 22.25650558 13 25.5 C12.34 25.995 11.68 26.49 11 27 C12.32 27.33 13.64 27.66 15 28 C14.67 28.99 14.34 29.98 14 31 C9.8029908 31.35281338 7.93477927 30.64185432 4.6875 28 C3.99011719 27.443125 3.29273437 26.88625 2.57421875 26.3125 C2.05472656 25.879375 1.53523438 25.44625 1 25 C1.33 23.68 1.66 22.36 2 21 C5.02419525 21.58803797 8.01758453 22.22678118 11 23 C11.33 21.35 11.66 19.7 12 18 C10.906875 18.061875 9.81375 18.12375 8.6875 18.1875 C5 18 5 18 3.0625 16.875 C1.51275485 14.14015561 1.67837924 12.0875593 2 9 C2.66 8.01 3.32 7.02 4 6 C5.98828125 5.671875 5.98828125 5.671875 8.3125 5.75 C9.11171875 5.77578125 9.9109375 5.8015625 10.734375 5.828125 C13.21879552 6.01659828 15.58641295 6.37713883 18 7 C17.67 5.68 17.34 4.36 17 3 C11.39 2.67 5.78 2.34 0 2 C0 1.34 0 0.68 0 0 Z " fill="#EDF3F7" transform="translate(119,28)"/>
<path d="M0 0 C3.5625 0.625 3.5625 0.625 6 3.25 C7.61829543 6.74551813 7.92377484 8.83161419 7.5625 12.625 C9.8725 12.625 12.1825 12.625 14.5625 12.625 C14.5625 13.945 14.5625 15.265 14.5625 16.625 C12.5825 16.625 10.6025 16.625 8.5625 16.625 C8.5625 24.545 8.5625 32.465 8.5625 40.625 C7.2425 41.285 5.9225 41.945 4.5625 42.625 C4.5625 34.045 4.5625 25.465 4.5625 16.625 C2.2525 16.625 -0.0575 16.625 -2.4375 16.625 C-2.128125 17.883125 -1.81875 19.14125 -1.5 20.4375 C-1.32597656 21.14519531 -1.15195313 21.85289063 -0.97265625 22.58203125 C-0.52739295 24.28183202 0.00683985 25.95801954 0.5625 27.625 C0.96263509 33.62702636 0.24657013 37.25685975 -2.4375 42.625 C-3.7575 42.625 -5.0775 42.625 -6.4375 42.625 C-6.4375 41.635 -6.4375 40.645 -6.4375 39.625 C-5.7775 39.295 -5.1175 38.965 -4.4375 38.625 C-3.49511302 35.79783905 -3.30284353 33.99323877 -3.3125 31.0625 C-3.30992187 30.27746094 -3.30734375 29.49242188 -3.3046875 28.68359375 C-3.30773634 26.56061023 -3.30773634 26.56061023 -4.4375 24.625 C-5.4275 24.625 -6.4175 24.625 -7.4375 24.625 C-7.7675 26.935 -8.0975 29.245 -8.4375 31.625 C-9.4275 31.955 -10.4175 32.285 -11.4375 32.625 C-11.9325 29.16 -11.9325 29.16 -12.4375 25.625 C-13.4275 25.295 -14.4175 24.965 -15.4375 24.625 C-15.54591951 26.54041138 -15.62328079 28.45759773 -15.6875 30.375 C-15.75710937 31.97601563 -15.75710937 31.97601563 -15.828125 33.609375 C-15.35111855 37.29186479 -14.16828458 38.23825128 -11.4375 40.625 C-11.4375 41.285 -11.4375 41.945 -11.4375 42.625 C-13.0875 42.625 -14.7375 42.625 -16.4375 42.625 C-19.37733916 37.57215145 -21.32700647 33.62916869 -20.4375 27.625 C-18.9375 24.1875 -18.9375 24.1875 -16.4375 21.625 C-13.58914152 21.10859913 -11.36345977 21.33240402 -8.4375 21.625 C-7.7775 19.975 -7.1175 18.325 -6.4375 16.625 C-13.0375 16.625 -19.6375 16.625 -26.4375 16.625 C-26.4375 24.545 -26.4375 32.465 -26.4375 40.625 C-27.7575 41.285 -29.0775 41.945 -30.4375 42.625 C-30.9325 40.15 -30.9325 40.15 -31.4375 37.625 C-32.530625 37.686875 -33.62375 37.74875 -34.75 37.8125 C-38.4375 37.625 -38.4375 37.625 -40.3125 36.25 C-42.59992017 32.94594865 -42.52400741 30.60434099 -42.4375 26.625 C-44.0875 26.625 -45.7375 26.625 -47.4375 26.625 C-47.4375 25.635 -47.4375 24.645 -47.4375 23.625 C-45.4575 23.295 -43.4775 22.965 -41.4375 22.625 C-41.4375 23.615 -41.4375 24.605 -41.4375 25.625 C-39.7875 25.625 -38.1375 25.625 -36.4375 25.625 C-36.4375 22.655 -36.4375 19.685 -36.4375 16.625 C-37.4275 16.295 -38.4175 15.965 -39.4375 15.625 C-39.1075 17.935 -38.7775 20.245 -38.4375 22.625 C-39.7575 21.965 -41.0775 21.305 -42.4375 20.625 C-42.5625 17.75 -42.5625 17.75 -42.4375 14.625 C-40.4375 12.625 -40.4375 12.625 -36.99755859 12.39794922 C-35.52698021 12.39826631 -34.05637858 12.40959013 -32.5859375 12.4296875 C-31.81190582 12.4325174 -31.03787415 12.43534729 -30.24038696 12.43826294 C-27.76426843 12.44947246 -25.2885095 12.47457797 -22.8125 12.5 C-21.13542188 12.51002882 -19.45833811 12.51915484 -17.78125 12.52734375 C-13.66652777 12.54941426 -9.55207489 12.58394898 -5.4375 12.625 C-5.9325 11.635 -5.9325 11.635 -6.4375 10.625 C-6.7180537 7.3986324 -6.70539202 5.22381746 -5.375 2.25 C-3.4375 0.625 -3.4375 0.625 0 0 Z M-1.4375 4.625 C-1.4375 6.935 -1.4375 9.245 -1.4375 11.625 C0.2125 11.625 1.8625 11.625 3.5625 11.625 C2.9025 9.315 2.2425 7.005 1.5625 4.625 C0.5725 4.625 -0.4175 4.625 -1.4375 4.625 Z M-37.4375 29.625 C-37.1075 30.945 -36.7775 32.265 -36.4375 33.625 C-34.7875 33.295 -33.1375 32.965 -31.4375 32.625 C-31.4375 30.645 -31.4375 28.665 -31.4375 26.625 C-33.59268172 26.625 -35.6536657 28.52725582 -37.4375 29.625 Z " fill="#D7E5F0" transform="translate(240.4375,14.375)"/>
<path d="M0 0 C1.2065625 0.0309375 1.2065625 0.0309375 2.4375 0.0625 C4.23699352 5.46098055 1.4112088 10.91099589 -0.5625 16.0625 C-2.72312991 20.07121587 -5.42183677 23.99216839 -9.5625 26.0625 C-13.3125 26.25 -13.3125 26.25 -16.5625 26.0625 C-14.8125 21.1875 -14.8125 21.1875 -12.5625 20.0625 C-11.1810408 17.74521359 -9.8605084 15.42477582 -8.5625 13.0625 C-7.56772955 11.39270674 -6.56989746 9.72470581 -5.5625 8.0625 C-6.09875 8.35125 -6.635 8.64 -7.1875 8.9375 C-15.62737683 12.9353364 -25.1626011 13.51660149 -34.26171875 11.44921875 C-37.31967086 10.34699941 -39.8600033 8.86416446 -42.5625 7.0625 C-42.5625 6.4025 -42.5625 5.7425 -42.5625 5.0625 C-40.4375 3.875 -40.4375 3.875 -37.5625 3.0625 C-36.65886719 3.53042969 -35.75523438 3.99835937 -34.82421875 4.48046875 C-27.99010545 7.79521831 -19.88909063 7.00859458 -12.73046875 4.97265625 C-8.70561805 3.44170422 -4.11102622 0.10026893 0 0 Z " fill="#F8CB26" transform="translate(51.5625,30.9375)"/>
<path d="M0 0 C0.99 0 1.98 0 3 0 C3.2475 0.763125 3.495 1.52625 3.75 2.3125 C5.12176758 5.26180029 6.3918717 6.17431019 9 8 C9 8.66 9 9.32 9 10 C8.236875 9.814375 7.47375 9.62875 6.6875 9.4375 C3.91032625 8.77180827 3.91032625 8.77180827 1 10 C4.27378076 13.92853692 7.07172848 14.86077634 12 16 C21.04124484 16.70965938 29.506978 16.42987427 38 13 C36.95548892 18.65776837 33.02320982 22.40272909 28.625 25.875 C22.34787144 28.56519795 17.31751067 28.38396629 11 26 C6.50099961 23.90744168 4.46029763 21.28274032 2 17 C2 16.34 2 15.68 2 15 C1.34 15 0.68 15 0 15 C-1.03876383 11.88370851 -1.13361625 9.6405571 -1.125 6.375 C-1.12757813 5.39273437 -1.13015625 4.41046875 -1.1328125 3.3984375 C-1 1 -1 1 0 0 Z " fill="#050F65" transform="translate(8,26)"/>
<path d="M0 0 C26.07 0 52.14 0 79 0 C79 0.33 79 0.66 79 1 C53.59 1 28.18 1 2 1 C2 1.66 2 2.32 2 3 C7.61 3 13.22 3 19 3 C19.33 4.65 19.66 6.3 20 8 C15.38 8 10.76 8 6 8 C4.61874982 10.76250036 4.80920694 12.94731099 5 16 C7.76223278 18.76223278 10.20706617 18.57856291 14 19 C14 20.65 14 22.3 14 24 C12.125 24.625 12.125 24.625 10 25 C9.34 24.34 8.68 23.68 8 23 C6.68 23 5.36 23 4 23 C4.04768403 24.87880872 4.04768403 24.87880872 5 27 C7.99745277 29.45246136 9.97875396 30.911196 13.875 31.25 C14.926875 31.12625 14.926875 31.12625 16 31 C16.33 30.34 16.66 29.68 17 29 C15.35 29 13.7 29 12 29 C12.66 28.01 13.32 27.02 14 26 C14.66 26 15.32 26 16 26 C16 22.7 16 19.4 16 16 C13.36 15.67 10.72 15.34 8 15 C7.67 13.68 7.34 12.36 7 11 C11.29 11.33 15.58 11.66 20 12 C20.33 18.27 20.66 24.54 21 31 C14.87096774 34.67741935 14.87096774 34.67741935 11 34 C8.4375 32.1875 8.4375 32.1875 6 30 C5.236875 29.525625 4.47375 29.05125 3.6875 28.5625 C2 27 2 27 1.5625 24.5 C2.06084099 21.65233722 2.77015215 20.76529621 5 19 C4.34 18.34 3.68 17.68 3 17 C2.53623188 9.69565217 2.53623188 9.69565217 5 6 C2.525 5.01 2.525 5.01 0 4 C0 2.68 0 1.36 0 0 Z M12 5 C14.8424854 6.57273568 14.8424854 6.57273568 18 7 C18 6.34 18 5.68 18 5 C16.02 5 14.04 5 12 5 Z M8 20 C9.32 21.32 10.64 22.64 12 24 C12.33 22.68 12.66 21.36 13 20 C11.35 20 9.7 20 8 20 Z M17 25 C16.67 25.99 16.34 26.98 16 28 C16.66 28 17.32 28 18 28 C17.67 27.01 17.34 26.02 17 25 Z " fill="#6FA5CB" transform="translate(117,27)"/>
<path d="M0 0 C1.4606285 2.64738916 2 3.89448334 2 7 C2.99 7 3.98 7 5 7 C5.66 5.68 6.32 4.36 7 3 C7 3.99 7 4.98 7 6 C7.66 6 8.32 6 9 6 C13 11.41176471 13 11.41176471 13 14 C19.23571754 16.64545593 25.15918081 18.73294491 32 18 C34.52978573 16.86134889 36.66391496 15.52560656 39 14 C37.92598892 16.91517292 37.22189824 18.77810176 35 21 C36.32 21.66 37.64 22.32 39 23 C33.11357958 26.91375942 23.71770972 25.9370296 17 25 C9.03927823 21.94447264 4.37098769 15.45804888 0.75 8.00390625 C-0.27152656 5.27451496 -0.28772085 2.87720848 0 0 Z " fill="#F7CD27" transform="translate(1,35)"/>
<path d="M0 0 C0.66 0 1.32 0 2 0 C6.59468798 5.15161986 6.76073089 10.27653809 7 17 C-2.84024614 21.64632195 -10.25047813 22.66905738 -21 22 C-21 21.34 -21 20.68 -21 20 C-20.21753906 19.95101562 -19.43507813 19.90203125 -18.62890625 19.8515625 C-17.61699219 19.77679688 -16.60507812 19.70203125 -15.5625 19.625 C-14.55316406 19.55539063 -13.54382813 19.48578125 -12.50390625 19.4140625 C-11.67761719 19.27742188 -10.85132813 19.14078125 -10 19 C-9.67 18.34 -9.34 17.68 -9 17 C-9.7425 17.061875 -10.485 17.12375 -11.25 17.1875 C-14.45383006 16.96905704 -15.64031256 16.09749995 -18 14 C-16.783125 13.608125 -15.56625 13.21625 -14.3125 12.8125 C-9.54069666 11.01467269 -6.85445967 8.28572937 -3.65625 4.34375 C-2.46385474 2.87405351 -1.23441228 1.43458724 0 0 Z " fill="#EDFEFE" transform="translate(41,16)"/>
<path d="M0 0 C1.67542976 0.28604898 3.34385343 0.61781233 5 1 C5 3.31 5 5.62 5 8 C6.65 8.33 8.3 8.66 10 9 C10 10.98 10 12.96 10 15 C8.68 15.33 7.36 15.66 6 16 C5.67 22.93 5.34 29.86 5 37 C3.02 37 1.04 37 -1 37 C-1 29.74 -1 22.48 -1 15 C-2.32 15 -3.64 15 -5 15 C-5 12.69 -5 10.38 -5 8 C-3.68 8 -2.36 8 -1 8 C-1.020625 6.865625 -1.04125 5.73125 -1.0625 4.5625 C-1 1 -1 1 0 0 Z " fill="#D7FD1D" transform="translate(97,22)"/>
<path d="M0 0 C82.5 0 165 0 250 0 C250 0.33 250 0.66 250 1 C167.5 1 85 1 0 1 C0 0.67 0 0.34 0 0 Z " fill="#D4FD00" transform="translate(1,80)"/>
<path d="M0 0 C82.5 0 165 0 250 0 C250 0.33 250 0.66 250 1 C167.5 1 85 1 0 1 C0 0.67 0 0.34 0 0 Z " fill="#D4FD00" transform="translate(1,62)"/>
<path d="M0 0 C0.33 0 0.66 0 1 0 C4.42927077 8.0832811 5.46662919 16.19271542 2.875 24.6875 C1 27 1 27 -2.1875 27.875 C-3.5796875 27.936875 -3.5796875 27.936875 -5 28 C-5.6875 26.1875 -5.6875 26.1875 -6 24 C-5.5153125 23.5875 -5.030625 23.175 -4.53125 22.75 C-2.28046554 20.1776749 -2.70444907 18.16207883 -2.8125 14.8125 C-2.83957031 13.72582031 -2.86664063 12.63914062 -2.89453125 11.51953125 C-2.94673828 10.27236328 -2.94673828 10.27236328 -3 9 C-3.66 11.31 -4.32 13.62 -5 16 C-6.65 16.33 -8.3 16.66 -10 17 C-10.33 15.02 -10.66 13.04 -11 11 C-12.60685189 15.01712972 -11.43257376 18.06042217 -10 22 C-8.52238341 23.90170054 -8.52238341 23.90170054 -7 25 C-7.66 25.99 -8.32 26.98 -9 28 C-14.50648298 27.51053485 -14.50648298 27.51053485 -16.8125 25.125 C-19.53089862 20.26049721 -19.50371431 15.43664071 -19 10 C-17.61451845 6.97713116 -16.33128575 5.33128575 -14 3 C-11.8359375 3.0234375 -11.8359375 3.0234375 -9.375 3.375 C-8.14910156 3.54128906 -8.14910156 3.54128906 -6.8984375 3.7109375 C-6.27195313 3.80632813 -5.64546875 3.90171875 -5 4 C-5.33 4.66 -5.66 5.32 -6 6 C-7.8871875 5.8453125 -7.8871875 5.8453125 -9.8125 5.6875 C-11.98992721 5.64056181 -11.98992721 5.64056181 -14 6 C-16.6524529 8.73534205 -16.95669775 10.61027971 -17.375 14.375 C-16.92637458 18.7117124 -16.18866425 21.22644095 -14 25 C-11.42267086 26.05167527 -11.42267086 26.05167527 -9 26 C-9 25.34 -9 24.68 -9 24 C-9.9590625 23.566875 -9.9590625 23.566875 -10.9375 23.125 C-13 22 -13 22 -14 20 C-14.0955931 18.33555539 -14.12984645 16.66718037 -14.125 15 C-14.12757813 14.113125 -14.13015625 13.22625 -14.1328125 12.3125 C-14 10 -14 10 -13 8 C-11.68 8.33 -10.36 8.66 -9 9 C-8.67 10.98 -8.34 12.96 -8 15 C-7.34 15 -6.68 15 -6 15 C-6 12.69 -6 10.38 -6 8 C-4.68 7.67 -3.36 7.34 -2 7 C0.07324138 10.10986207 0.27392186 10.89108387 0.25 14.4375 C0.25515625 15.19933594 0.2603125 15.96117187 0.265625 16.74609375 C-0.0252708 19.21443018 -0.77024344 20.857686 -2 23 C-2.66 23 -3.32 23 -4 23 C-4 23.99 -4 24.98 -4 26 C-2.68 26 -1.36 26 0 26 C2.38457637 18.84627089 3.0037613 13.13393308 0 6 C-0.125 2.6875 -0.125 2.6875 0 0 Z " fill="#4F91C0" transform="translate(238,31)"/>
<path d="M0 0 C2.5 0.3125 2.5 0.3125 5 1 C6.29361994 3.58723989 6.12948949 5.48113003 6.1328125 8.375 C6.13410156 9.44234375 6.13539062 10.5096875 6.13671875 11.609375 C6.13285156 12.72828125 6.12898438 13.8471875 6.125 15 C6.12886719 16.11890625 6.13273437 17.2378125 6.13671875 18.390625 C6.13542969 19.45796875 6.13414063 20.5253125 6.1328125 21.625 C6.13168457 22.60726562 6.13055664 23.58953125 6.12939453 24.6015625 C6 27 6 27 5 29 C3.02 29 1.04 29 -1 29 C-1.02465881 25.03069011 -1.04284023 21.06140966 -1.05493164 17.09204102 C-1.05997057 15.74079614 -1.06680177 14.38955674 -1.07543945 13.03833008 C-1.08752419 11.09979566 -1.09269828 9.161222 -1.09765625 7.22265625 C-1.10289307 6.05484619 -1.10812988 4.88703613 -1.11352539 3.68383789 C-1 1 -1 1 0 0 Z " fill="#DCFD1D" transform="translate(62,30)"/>
<path d="M0 0 C-1.04451108 5.65776837 -4.97679018 9.40272909 -9.375 12.875 C-14.50164441 15.07213332 -19.60030495 15.51866423 -25 14 C-23.68 13.67 -22.36 13.34 -21 13 C-21 12.34 -21 11.68 -21 11 C-21.66 11 -22.32 11 -23 11 C-23 10.34 -23 9.68 -23 9 C-22.01 9 -21.02 9 -20 9 C-20.33 7.35 -20.66 5.7 -21 4 C-20.29875 3.96261719 -19.5975 3.92523438 -18.875 3.88671875 C-12.53319839 3.44727326 -5.93985098 0 0 0 Z " fill="#0B1A66" transform="translate(46,39)"/>
<path d="M0 0 C6.44444444 1.44444444 6.44444444 1.44444444 8 3 C16.04296962 3.34880225 24.02620132 3.11912964 32 2 C32.495 3.485 32.495 3.485 33 5 C24.76229015 10.12568613 14.62592379 10.5032804 5.296875 8.38671875 C2.24119499 7.28327875 -0.29891897 5.80072069 -3 4 C-3 3.34 -3 2.68 -3 2 C-2.01 1.34 -1.02 0.68 0 0 Z " fill="#F2B90C" transform="translate(12,34)"/>
<path d="M0 0 C1.65 0.33 3.3 0.66 5 1 C5 10.24 5 19.48 5 29 C3.02 29 1.04 29 -1 29 C-1.22551667 24.72989093 -1.42747453 20.45898818 -1.625 16.1875 C-1.68945312 14.97255859 -1.75390625 13.75761719 -1.8203125 12.50585938 C-1.871875 11.34248047 -1.9234375 10.17910156 -1.9765625 8.98046875 C-2.02893066 7.90692139 -2.08129883 6.83337402 -2.13525391 5.72729492 C-2 3 -2 3 0 0 Z " fill="#D8FD18" transform="translate(79,30)"/>
<path d="M0 0 C0.94875 0.350625 1.8975 0.70125 2.875 1.0625 C2.875 1.7225 2.875 2.3825 2.875 3.0625 C5.35 4.0525 5.35 4.0525 7.875 5.0625 C6.50142293 7.9862569 4.92714734 10.53383557 3 13.125 C2.50757813 13.79660156 2.01515625 14.46820313 1.5078125 15.16015625 C-0.23380855 17.18926977 -1.84584486 18.66130735 -4.125 20.0625 C-7.375 19.75 -7.375 19.75 -10.125 19.0625 C-10.125 18.4025 -10.125 17.7425 -10.125 17.0625 C-9.465 17.0625 -8.805 17.0625 -8.125 17.0625 C-8.455 15.4125 -8.785 13.7625 -9.125 12.0625 C-4.25 10.0625 -4.25 10.0625 -3.125 10.0625 C-3.08375 8.78375 -3.0425 7.505 -3 6.1875 C-2.96519531 5.10855469 -2.96519531 5.10855469 -2.9296875 4.0078125 C-2.94168311 1.82386355 -2.94168311 1.82386355 -5.125 0.0625 C-3.125 -0.9375 -3.125 -0.9375 0 0 Z " fill="#FAFDFC" transform="translate(34.125,8.9375)"/>
<path d="M0 0 C9.57 0 19.14 0 29 0 C28.67 2.31 28.34 4.62 28 7 C26.68 7 25.36 7 24 7 C24 5.68 24 4.36 24 3 C23.34 3 22.68 3 22 3 C22.33 4.32 22.66 5.64 23 7 C21 7 19 7 17 7 C17 6.34 17 5.68 17 5 C16.01 5 15.02 5 14 5 C13.67 5.66 13.34 6.32 13 7 C12.34 7 11.68 7 11 7 C11 6.01 11 5.02 11 4 C9.68 4 8.36 4 7 4 C7 5.98 7 7.96 7 10 C5.35 10.33 3.7 10.66 2 11 C1.34 10.01 0.68 9.02 0 8 C0.99 7.67 1.98 7.34 3 7 C3.33 6.34 3.66 5.68 4 5 C2.68 4.67 1.36 4.34 0 4 C0.66 3.67 1.32 3.34 2 3 C2 2.34 2 1.68 2 1 C1.34 0.67 0.68 0.34 0 0 Z M8 1 C9 3 9 3 9 3 Z M13 1 C13.33 1.66 13.66 2.32 14 3 C14.99 2.34 15.98 1.68 17 1 C15.68 1 14.36 1 13 1 Z M19 1 C19 1.33 19 1.66 19 2 C20.65 2 22.3 2 24 2 C24 1.67 24 1.34 24 1 C22.35 1 20.7 1 19 1 Z " fill="#FFFEFE" transform="translate(159,13)"/>
<path d="M0 0 C9.1676368 0.63225081 13.65809156 4.34807405 19.77734375 11 C21 13 21 13 20.69140625 15.25 C20.46324219 15.8275 20.23507813 16.405 20 17 C17.75 17.3125 17.75 17.3125 15 17 C13.63823078 15.35648543 12.31037934 13.68477344 11 12 C5.89013209 7.87323867 1.51639557 6.34909262 -5 6 C-5 5.67 -5 5.34 -5 5 C-4.21753906 4.95101563 -3.43507813 4.90203125 -2.62890625 4.8515625 C-1.61699219 4.77679687 -0.60507812 4.70203125 0.4375 4.625 C1.44683594 4.55539063 2.45617188 4.48578125 3.49609375 4.4140625 C4.73552734 4.20910156 4.73552734 4.20910156 6 4 C6.33 3.34 6.66 2.68 7 2 C4.69 1.67 2.38 1.34 0 1 C0 0.67 0 0.34 0 0 Z " fill="#FED123" transform="translate(30,2)"/>
<path d="M0 0 C5.83235772 0.11497479 5.83235772 0.11497479 8.1875 2.1875 C8.9375 5.3125 8.9375 5.3125 9.1875 8.1875 C8.5275 8.1875 7.8675 8.1875 7.1875 8.1875 C7.0328125 9.05375 7.0328125 9.05375 6.875 9.9375 C6.08957202 12.50799158 4.88245803 14.12407284 3.1875 16.1875 C-0.34836014 13.01429218 -2.39828031 11.02006305 -2.8125 6.1875 C-3.8025 6.1875 -4.7925 6.1875 -5.8125 6.1875 C-4.74379771 0.23330153 -4.74379771 0.23330153 0 0 Z " fill="#30A2F2" transform="translate(13.8125,19.8125)"/>
<path d="M0 0 C2.375 -0.125 2.375 -0.125 5 0 C5.66 0.66 6.32 1.32 7 2 C9.89223503 2.46396693 9.89223503 2.46396693 13.125 2.625 C14.76855469 2.73714844 14.76855469 2.73714844 16.4453125 2.8515625 C17.70988281 2.92503906 17.70988281 2.92503906 19 3 C18.67 5.31 18.34 7.62 18 10 C8.625 10 8.625 10 4 9 C3.67 8.01 3.34 7.02 3 6 C2.67 7.32 2.34 8.64 2 10 C1.34 10 0.68 10 0 10 C-1.125 3.375 -1.125 3.375 0 0 Z M2 1 C2 1.66 2 2.32 2 3 C2.99 2.67 3.98 2.34 5 2 C4.01 1.67 3.02 1.34 2 1 Z M9 4 C10 7 10 7 10 7 Z M13 4 C14 6 14 6 14 6 Z " fill="#FFFEFE" transform="translate(124,10)"/>
<path d="M0 0 C1.4025 0.12375 2.805 0.2475 4.25 0.375 C3.92 3.675 3.59 6.975 3.25 10.375 C2.26 10.705 1.27 11.035 0.25 11.375 C-0.08 9.065 -0.41 6.755 -0.75 4.375 C-1.74 4.045 -2.73 3.715 -3.75 3.375 C-3.85841951 5.29041138 -3.93578079 7.20759773 -4 9.125 C-4.04640625 10.19234375 -4.0928125 11.2596875 -4.140625 12.359375 C-3.66361855 16.04186479 -2.48078458 16.98825128 0.25 19.375 C0.25 20.035 0.25 20.695 0.25 21.375 C-1.4 21.375 -3.05 21.375 -4.75 21.375 C-7.68983916 16.32215145 -9.63950647 12.37916869 -8.75 6.375 C-6.70442313 1.48340313 -5.20006951 0.00818909 0 0 Z " fill="#F4F7FA" transform="translate(228.75,35.625)"/>
<path d="M0 0 C-1.98 0.99 -1.98 0.99 -4 2 C-4 2.66 -4 3.32 -4 4 C-3.01 4 -2.02 4 -1 4 C-1 5.32 -1 6.64 -1 8 C-3.3260857 8.38063221 -5.66055264 8.71269945 -8 9 C-8.33 8.67 -8.66 8.34 -9 8 C-9.99 9.485 -9.99 9.485 -11 11 C-12.99285937 11.37366113 -14.99363529 11.70740515 -17 12 C-17.66 12.66 -18.32 13.32 -19 14 C-18.58181281 9.12114941 -16.55070071 7.22040297 -13 4 C-12.29875 3.2575 -11.5975 2.515 -10.875 1.75 C-7.28857005 -1.59733462 -4.51665547 -0.90333109 0 0 Z " fill="#F4FDFA" transform="translate(27,9)"/>
<path d="M0 0 C1.32 0.33 2.64 0.66 4 1 C4.33 2.65 4.66 4.3 5 6 C5.66 6 6.32 6 7 6 C7.33 4.35 7.66 2.7 8 1 C9.32 0.67 10.64 0.34 12 0 C12 3.96 12 7.92 12 12 C10.68 11.67 9.36 11.34 8 11 C6.32457024 11.28604898 4.65614657 11.61781233 3 12 C2.01 12 1.02 12 0 12 C0 8.04 0 4.08 0 0 Z " fill="#FFFEFE" transform="translate(32,66)"/>
<path d="M0 0 C1.875 0.3125 1.875 0.3125 4 1 C6 4 6 4 5.625 7.1875 C5.315625 8.5796875 5.315625 8.5796875 5 10 C3.02 10 1.04 10 -1 10 C-1.66 8.68 -2.32 7.36 -3 6 C-2.67 5.67 -2.34 5.34 -2 5 C-2.66 4.67 -3.32 4.34 -4 4 C-3.67 6.31 -3.34 8.62 -3 11 C-4.32 10.01 -5.64 9.02 -7 8 C-6.67 6.68 -6.34 5.36 -6 4 C-6.66 4 -7.32 4 -8 4 C-8 5.98 -8 7.96 -8 10 C-9.65 10 -11.3 10 -13 10 C-13 9.34 -13 8.68 -13 8 C-13.99 8 -14.98 8 -16 8 C-15.67 6.68 -15.34 5.36 -15 4 C-15.66 3.67 -16.32 3.34 -17 3 C-15.85660156 2.95101563 -14.71320313 2.90203125 -13.53515625 2.8515625 C-12.04424527 2.77654811 -10.55336108 2.70099972 -9.0625 2.625 C-8.30775391 2.5940625 -7.55300781 2.563125 -6.77539062 2.53125 C-4.84492605 2.4273685 -2.92057919 2.22104386 -1 2 C-0.67 1.34 -0.34 0.68 0 0 Z M2 4 C2 4.66 2 5.32 2 6 C1.01 6.33 0.02 6.66 -1 7 C-0.34 7.66 0.32 8.32 1 9 C1.66 8.67 2.32 8.34 3 8 C2.67 6.68 2.34 5.36 2 4 Z " fill="#FFFEFE" transform="translate(224,10)"/>
<path d="M0 0 C0.66 0 1.32 0 2 0 C2 1.65 2 3.3 2 5 C0.56328432 5.64757625 -0.87440416 6.29299453 -2.3125 6.9375 C-3.11300781 7.29714844 -3.91351563 7.65679687 -4.73828125 8.02734375 C-9.17372463 9.93481422 -12.93599146 10.12017471 -17.6875 10.0625 C-18.38939453 10.05798828 -19.09128906 10.05347656 -19.81445312 10.04882812 C-21.54300538 10.03706927 -23.27151365 10.01913454 -25 10 C-25 9.34 -25 8.68 -25 8 C-24.21753906 7.95101562 -23.43507813 7.90203125 -22.62890625 7.8515625 C-21.61699219 7.77679688 -20.60507812 7.70203125 -19.5625 7.625 C-18.55316406 7.55539063 -17.54382813 7.48578125 -16.50390625 7.4140625 C-15.26447266 7.20910156 -15.26447266 7.20910156 -14 7 C-13.67 6.34 -13.34 5.68 -13 5 C-13.7425 5.061875 -14.485 5.12375 -15.25 5.1875 C-18.45383006 4.96905704 -19.64031256 4.09749995 -22 2 C-19.19995156 0.92305829 -17.8088426 1.04123003 -14.8125 1.6875 C-12 3 -12 3 -11.125 5.125 C-11.063125 6.053125 -11.063125 6.053125 -11 7 C-10.01 6.34 -9.02 5.68 -8 5 C-8 4.67 -8 4.34 -8 4 C-2.25 3.875 -2.25 3.875 0 5 C0 3.35 0 1.7 0 0 Z " fill="#90E5DD" transform="translate(45,28)"/>
<path d="M0 0 C0.33 0 0.66 0 1 0 C4.42927077 8.0832811 5.46662919 16.19271542 2.875 24.6875 C1 27 1 27 -2.1875 27.875 C-3.5796875 27.936875 -3.5796875 27.936875 -5 28 C-5.6875 26.1875 -5.6875 26.1875 -6 24 C-5.5153125 23.5875 -5.030625 23.175 -4.53125 22.75 C-2.28046554 20.1776749 -2.70444907 18.16207883 -2.8125 14.8125 C-2.83957031 13.72582031 -2.86664063 12.63914062 -2.89453125 11.51953125 C-2.94673828 10.27236328 -2.94673828 10.27236328 -3 9 C-3.33 10.65 -3.66 12.3 -4 14 C-4.66 14 -5.32 14 -6 14 C-6 12.02 -6 10.04 -6 8 C-4.68 7.67 -3.36 7.34 -2 7 C0.07324138 10.10986207 0.27392186 10.89108387 0.25 14.4375 C0.25515625 15.19933594 0.2603125 15.96117187 0.265625 16.74609375 C-0.0252708 19.21443018 -0.77024344 20.857686 -2 23 C-2.66 23 -3.32 23 -4 23 C-4 23.99 -4 24.98 -4 26 C-2.68 26 -1.36 26 0 26 C2.38457637 18.84627089 3.0037613 13.13393308 0 6 C-0.125 2.6875 -0.125 2.6875 0 0 Z " fill="#5897C3" transform="translate(238,31)"/>
<path d="M0 0 C4 1 4 1 6 4 C6.33 2.68 6.66 1.36 7 0 C7.99 0 8.98 0 10 0 C10 3.96 10 7.92 10 12 C6 11 6 11 4 8 C3.67 9.32 3.34 10.64 3 12 C2.01 12 1.02 12 0 12 C0 8.04 0 4.08 0 0 Z " fill="#FFFEFE" transform="translate(241,66)"/>
<path d="M0 0 C1.65 0.33 3.3 0.66 5 1 C5 6.94 5 12.88 5 19 C4.34 19.33 3.68 19.66 3 20 C1 19 1 19 -0.125 15.9375 C-1.49007724 10.71366113 -1.72683909 5.18051727 0 0 Z " fill="#FEC402" transform="translate(2,23)"/>
<path d="M0 0 C6 0 6 0 9 2 C8.814375 2.9075 8.62875 3.815 8.4375 4.75 C8.04265379 7.68314324 8.05308428 9.2644657 9 12 C7.0625 11.625 7.0625 11.625 5 11 C4.67 10.34 4.34 9.68 4 9 C3.67 9.99 3.34 10.98 3 12 C2.01 12 1.02 12 0 12 C0 8.04 0 4.08 0 0 Z M3 3 C3 3.66 3 4.32 3 5 C3.66 5 4.32 5 5 5 C5 4.34 5 3.68 5 3 C4.34 3 3.68 3 3 3 Z " fill="#FFFEFE" transform="translate(107,66)"/>
<path d="M0 0 C0.99 0.33 1.98 0.66 3 1 C3 3.64 3 6.28 3 9 C3.66 8.67 4.32 8.34 5 8 C5.46523063 6.10466658 5.46523063 6.10466658 5.625 3.9375 C5.74875 2.638125 5.8725 1.33875 6 0 C6.99 0.33 7.98 0.66 9 1 C9.25 8.625 9.25 8.625 7 12 C4 12.375 4 12.375 1 12 C-1.69461986 7.95807022 -1.23200889 5.7948504 -1 1 C-0.67 0.67 -0.34 0.34 0 0 Z " fill="#FFFEFE" transform="translate(159,66)"/>
<path d="M0 0 C2.5 0.25 2.5 0.25 4.5 2.25 C4.765625 4.125 4.765625 4.125 4.75 6.25 C4.75515625 6.95125 4.7603125 7.6525 4.765625 8.375 C4.5 10.25 4.5 10.25 2.5 12.25 C-0.29844834 12.60877543 -1.903308 12.58812547 -4.375 11.1875 C-6.18060316 8.07785011 -5.29952488 5.63260527 -4.5 2.25 C-2.5 0.25 -2.5 0.25 0 0 Z M-1.5 3.25 C-1.83 4.9 -2.16 6.55 -2.5 8.25 C-1.18 8.58 0.14 8.91 1.5 9.25 C1.5 7.27 1.5 5.29 1.5 3.25 C0.51 3.25 -0.48 3.25 -1.5 3.25 Z " fill="#FFFEFE" transform="translate(230.5,65.75)"/>
<path d="M0 0 C6 0 6 0 7.875 1.125 C9.52854531 3.88090884 9.39365568 5.85075452 9 9 C7.875 10.875 7.875 10.875 6 12 C4.02 12 2.04 12 0 12 C0 8.04 0 4.08 0 0 Z M3 3 C3 4.98 3 6.96 3 9 C3.99 8.67 4.98 8.34 6 8 C5.67 6.35 5.34 4.7 5 3 C4.34 3 3.68 3 3 3 Z " fill="#FFFEFE" transform="translate(144,66)"/>
<path d="M0 0 C1.423125 0.4021875 1.423125 0.4021875 2.875 0.8125 C4.38162097 3.82574195 4.05270373 6.49536377 3.875 9.8125 C3.215 10.4725 2.555 11.1325 1.875 11.8125 C-1.6875 11.5625 -1.6875 11.5625 -5.125 10.8125 C-6.52435013 8.01379973 -6.37765405 5.90751208 -6.125 2.8125 C-4.35767767 -0.23122179 -3.53906425 -0.21234385 0 0 Z M-2.125 2.8125 C-2.455 4.4625 -2.785 6.1125 -3.125 7.8125 C-1.805 8.1425 -0.485 8.4725 0.875 8.8125 C0.875 7.1625 0.875 5.5125 0.875 3.8125 C-0.115 3.4825 -1.105 3.1525 -2.125 2.8125 Z " fill="#FFFEFE" transform="translate(22.125,66.1875)"/>
<path d="M0 0 C2.64 0 5.28 0 8 0 C8 0.99 8 1.98 8 3 C6.35 3 4.7 3 3 3 C3 3.66 3 4.32 3 5 C4.65 5 6.3 5 8 5 C8 5.66 8 6.32 8 7 C6.35 7 4.7 7 3 7 C3 7.66 3 8.32 3 9 C4.65 9 6.3 9 8 9 C8 9.99 8 10.98 8 12 C5.36 12 2.72 12 0 12 C0 8.04 0 4.08 0 0 Z " fill="#FFFEFE" transform="translate(130,66)"/>
<path d="M0 0 C1.134375 0.020625 2.26875 0.04125 3.4375 0.0625 C3.4375 1.0525 3.4375 2.0425 3.4375 3.0625 C1.7875 3.0625 0.1375 3.0625 -1.5625 3.0625 C-1.5625 3.7225 -1.5625 4.3825 -1.5625 5.0625 C0.0875 5.0625 1.7375 5.0625 3.4375 5.0625 C3.4375 5.7225 3.4375 6.3825 3.4375 7.0625 C1.7875 7.0625 0.1375 7.0625 -1.5625 7.0625 C-1.5625 7.7225 -1.5625 8.3825 -1.5625 9.0625 C0.0875 9.0625 1.7375 9.0625 3.4375 9.0625 C3.7675 10.0525 4.0975 11.0425 4.4375 12.0625 C-1.71484375 12.16015625 -1.71484375 12.16015625 -3.5625 12.0625 C-4.5625 11.0625 -4.5625 11.0625 -4.6953125 8.8125 C-4.69273438 7.905 -4.69015625 6.9975 -4.6875 6.0625 C-4.69007812 5.155 -4.69265625 4.2475 -4.6953125 3.3125 C-4.47442744 -0.42955275 -3.90581879 0.06852314 0 0 Z " fill="#FFFEFE" transform="translate(97.5625,65.9375)"/>
<path d="M0 0 C2.625 0.5625 2.625 0.5625 5 2 C5.9375 4.4375 5.9375 4.4375 6 7 C5.01 8.485 5.01 8.485 4 10 C1 10.375 1 10.375 -2 10 C-4 7 -4 7 -3.8125 4.4375 C-3 2 -3 2 0 0 Z " fill="#D9FD22" transform="translate(63,17)"/>
<path d="M0 0 C0.66 0 1.32 0 2 0 C2 0.66 2 1.32 2 2 C2.66 2.33 3.32 2.66 4 3 C3.34 3 2.68 3 2 3 C2 3.66 2 4.32 2 5 C2.99 5.33 3.98 5.66 5 6 C4.01 6.33 3.02 6.66 2 7 C4.91765 8.9451 6.62537285 9.45276317 10 10 C9.67 10.99 9.34 11.98 9 13 C3.06 13.495 3.06 13.495 -3 14 C-4 10 -4 10 -2.6875 7.25 C-2.130625 6.5075 -1.57375 5.765 -1 5 C-0.34 5 0.32 5 1 5 C0.67 3.35 0.34 1.7 0 0 Z " fill="#DAF8FD" transform="translate(22,23)"/>
<path d="M0 0 C2 2 2 2 2 5 C1.01 5 0.02 5 -1 5 C-1 4.34 -1 3.68 -1 3 C-1.99 3 -2.98 3 -4 3 C-4 4.65 -4 6.3 -4 8 C-3.01 8.33 -2.02 8.66 -1 9 C-1 8.34 -1 7.68 -1 7 C-0.01 7 0.98 7 2 7 C1.125 10.875 1.125 10.875 0 12 C-2.77193929 12.29178308 -4.41409825 12.36366316 -6.8125 10.875 C-8.55198782 8.12844028 -8.39769128 6.18153026 -8 3 C-5.8975876 -0.31959853 -3.76753493 -0.4830173 0 0 Z " fill="#FFFEFE" transform="translate(181,66)"/>
<path d="M0 0 C0.99 0 1.98 0 3 0 C3 2.97 3 5.94 3 9 C3.99 9 4.98 9 6 9 C6 6.36 6 3.72 6 1 C6.99 0.67 7.98 0.34 9 0 C9 3.63 9 7.26 9 11 C5.625 11.625 5.625 11.625 2 12 C0 10 0 10 -0.1953125 7.6171875 C-0.17210937 6.71226563 -0.14890625 5.80734375 -0.125 4.875 C-0.10695312 3.96492188 -0.08890625 3.05484375 -0.0703125 2.1171875 C-0.04710937 1.41851562 -0.02390625 0.71984375 0 0 Z " fill="#FFFEFE" transform="translate(64,66)"/>
<path d="M0 0 C2 2 2 2 2 5 C1.01 5 0.02 5 -1 5 C-1 4.34 -1 3.68 -1 3 C-1.99 3 -2.98 3 -4 3 C-4 4.65 -4 6.3 -4 8 C-3.01 8.33 -2.02 8.66 -1 9 C-1 8.34 -1 7.68 -1 7 C-0.01 7 0.98 7 2 7 C1.125 10.875 1.125 10.875 0 12 C-2.77193929 12.29178308 -4.41409825 12.36366316 -6.8125 10.875 C-8.55198782 8.12844028 -8.39769128 6.18153026 -8 3 C-5.8975876 -0.31959853 -3.76753493 -0.4830173 0 0 Z " fill="#FFFEFE" transform="translate(9,66)"/>
<path d="M0 0 C4.29 0.33 8.58 0.66 13 1 C13.33 6.94 13.66 12.88 14 19 C13.34 19 12.68 19 12 19 C11.67 17.35 11.34 15.7 11 14 C10.67 14.66 10.34 15.32 10 16 C9.01 15.67 8.02 15.34 7 15 C7.66 15 8.32 15 9 15 C9 11.7 9 8.4 9 5 C6.36 4.67 3.72 4.34 1 4 C0.67 2.68 0.34 1.36 0 0 Z " fill="#5D9AC5" transform="translate(124,38)"/>
<path d="M0 0 C0 0.66 0 1.32 0 2 C4.05479018 2.18430864 6.45014657 1.89325516 10 0 C11.32 0 12.64 0 14 0 C14 1.98 14 3.96 14 6 C13.67 6 13.34 6 13 6 C13 4.35 13 2.7 13 1 C12.34 1 11.68 1 11 1 C11 2.65 11 4.3 11 6 C8.69 6 6.38 6 4 6 C3.67 6.66 3.34 7.32 3 8 C2.01 8 1.02 8 0 8 C-0.33 6.68 -0.66 5.36 -1 4 C-3.97 3.505 -3.97 3.505 -7 3 C-3.375 0 -3.375 0 0 0 Z " fill="#96E4F8" transform="translate(34,27)"/>
<path d="M0 0 C0.66 0 1.32 0 2 0 C2 0.99 2 1.98 2 3 C7.61 3 13.22 3 19 3 C19.33 4.65 19.66 6.3 20 8 C18.51886719 7.96519531 18.51886719 7.96519531 17.0078125 7.9296875 C15.08582031 7.90261719 15.08582031 7.90261719 13.125 7.875 C11.84882813 7.85179687 10.57265625 7.82859375 9.2578125 7.8046875 C5.91406662 7.64358476 5.91406662 7.64358476 4 10 C4.33 8.68 4.66 7.36 5 6 C2.525 5.01 2.525 5.01 0 4 C0 2.68 0 1.36 0 0 Z M12 5 C14.8424854 6.57273568 14.8424854 6.57273568 18 7 C18 6.34 18 5.68 18 5 C16.02 5 14.04 5 12 5 Z " fill="#609CC6" transform="translate(117,27)"/>
<path d="M0 0 C3.375 -0.125 3.375 -0.125 7 0 C7.66 0.66 8.32 1.32 9 2 C8.625 4.625 8.625 4.625 8 7 C6.35 7.33 4.7 7.66 3 8 C3 9.32 3 10.64 3 12 C2.01 12 1.02 12 0 12 C0 8.04 0 4.08 0 0 Z M3 3 C3 3.66 3 4.32 3 5 C3.99 5 4.98 5 6 5 C6 4.34 6 3.68 6 3 C5.01 3 4.02 3 3 3 Z " fill="#FFFEFE" transform="translate(50,66)"/>
<path d="M0 0 C0 1.66666667 0 3.33333333 0 5 C0.99 6.485 0.99 6.485 2 8 C1.79296875 9.98046875 1.79296875 9.98046875 1.1875 12.1875 C0.1010331 16.46327296 -0.52173063 20.61586408 -1 25 C-1.33 25 -1.66 25 -2 25 C-2 21.37 -2 17.74 -2 14 C-3.32 13.67 -4.64 13.34 -6 13 C-6.33 14.32 -6.66 15.64 -7 17 C-6.64139443 10.30602942 -4.86261324 4.86261324 0 0 Z " fill="#F9CE38" transform="translate(8,10)"/>
<path d="M0 0 C3 1 3 1 3.94921875 2.7421875 C4.31466797 3.79792969 4.31466797 3.79792969 4.6875 4.875 C5.06455078 5.92300781 5.06455078 5.92300781 5.44921875 6.9921875 C6 9 6 9 6 12 C5.01 12 4.02 12 3 12 C2.67 11.34 2.34 10.68 2 10 C1.01 9.67 0.02 9.34 -1 9 C-1.33 9.99 -1.66 10.98 -2 12 C-2.99 11.67 -3.98 11.34 -5 11 C-4.35731563 9.35293447 -3.71076198 7.70737825 -3.0625 6.0625 C-2.70285156 5.14597656 -2.34320313 4.22945313 -1.97265625 3.28515625 C-1 1 -1 1 0 0 Z " fill="#FFFEFE" transform="translate(192,66)"/>
<path d="M0 0 C2.6875 0.875 2.6875 0.875 5 2 C5.125 4.875 5.125 4.875 5 8 C3 10 3 10 0.5 10.3125 C-0.7375 10.1578125 -0.7375 10.1578125 -2 10 C-4 7 -4 7 -3.8125 4.4375 C-3 2 -3 2 0 0 Z " fill="#D6FD22" transform="translate(80,17)"/>
<path d="M0 0 C0.99 0 1.98 0 3 0 C3.2475 0.763125 3.495 1.52625 3.75 2.3125 C5.12176758 5.26180029 6.3918717 6.17431019 9 8 C9 8.66 9 9.32 9 10 C8.236875 9.814375 7.47375 9.62875 6.6875 9.4375 C3.91032625 8.77180827 3.91032625 8.77180827 1 10 C1 11.65 1 13.3 1 15 C-1.26166232 11.60750652 -1.24515545 10.34798499 -1.1875 6.375 C-1.18105469 5.39273437 -1.17460938 4.41046875 -1.16796875 3.3984375 C-1 1 -1 1 0 0 Z " fill="#3060B9" transform="translate(8,26)"/>
<path d="M0 0 C8.26086957 -0.31772575 8.26086957 -0.31772575 11 2 C11.75 5.125 11.75 5.125 12 8 C10.56163249 7.88541307 9.12429034 7.75790884 7.6875 7.625 C6.88699219 7.55539063 6.08648437 7.48578125 5.26171875 7.4140625 C3 7 3 7 0 5 C-0.1875 2.375 -0.1875 2.375 0 0 Z " fill="#63D2FB" transform="translate(11,20)"/>
<path d="M0 0 C0.33 0.66 0.66 1.32 1 2 C0.34 2 -0.32 2 -1 2 C-0.855625 3.051875 -0.71125 4.10375 -0.5625 5.1875 C-1 9 -1 9 -2.453125 10.578125 C-5.48874242 12.79744193 -7.15980064 14 -11 14 C-10.3043772 9.47845179 -7.98542458 5.58251446 -4.40234375 2.7265625 C-2.9661422 1.7690948 -1.4860448 0.87811738 0 0 Z " fill="#FECF20" transform="translate(17,3)"/>
<path d="M0 0 C1.32 0 2.64 0 4 0 C5.80411967 2.75924185 6.0127245 3.88972103 5.625 7.25 C5.41875 8.1575 5.2125 9.065 5 10 C3.02 10 1.04 10 -1 10 C-1 9.34 -1 8.68 -1 8 C-1.99 8 -2.98 8 -4 8 C-4.33 6.35 -4.66 4.7 -5 3 C-3.35 3 -1.7 3 0 3 C0 2.01 0 1.02 0 0 Z M1 6 C2 8 2 8 2 8 Z " fill="#FFFEFE" transform="translate(197,10)"/>
<path d="M0 0 C3.63 0 7.26 0 11 0 C10 4 10 4 8.25 5.8125 C5.3995411 7.31690887 4.01911587 6.92250763 1 6 C0.67 4.02 0.34 2.04 0 0 Z " fill="#045AAD" transform="translate(25,43)"/>
<path d="M0 0 C3.93846154 3.32307692 3.93846154 3.32307692 4.25 6.75 C4.1675 7.4925 4.085 8.235 4 9 C2.54494642 9.52992692 1.08581873 10.0486789 -0.375 10.5625 C-1.59316406 10.99755859 -1.59316406 10.99755859 -2.8359375 11.44140625 C-5 12 -5 12 -7 11 C-5.68 10.67 -4.36 10.34 -3 10 C-3.33 8.35 -3.66 6.7 -4 5 C-3.01 5 -2.02 5 -1 5 C-0.67 3.35 -0.34 1.7 0 0 Z " fill="#BDF9FE" transform="translate(43,18)"/>
<path d="M0 0 C1.4606285 2.64738916 2 3.89448334 2 7 C2.99 7 3.98 7 5 7 C5.66 5.68 6.32 4.36 7 3 C7 3.99 7 4.98 7 6 C7.66 6 8.32 6 9 6 C9.33 7.32 9.66 8.64 10 10 C8.35 10.33 6.7 10.66 5 11 C7.24578442 14.40739705 9.51137122 17.76478258 12 21 C6.1239776 18.69156263 3.38769512 13.43384894 0.75 8.00390625 C-0.27152656 5.27451496 -0.28772085 2.87720848 0 0 Z " fill="#F8D051" transform="translate(1,35)"/>
<path d="M0 0 C2.97 0 5.94 0 9 0 C9 0.99 9 1.98 9 3 C8.01 3 7.02 3 6 3 C6 5.97 6 8.94 6 12 C5.01 12 4.02 12 3 12 C3 9.03 3 6.06 3 3 C1.68 2.67 0.36 2.34 -1 2 C-0.67 1.34 -0.34 0.68 0 0 Z " fill="#FFFEFE" transform="translate(202,66)"/>
<path d="M0 0 C2.97 0 5.94 0 9 0 C9 0.99 9 1.98 9 3 C8.01 3 7.02 3 6 3 C6 5.97 6 8.94 6 12 C5.01 12 4.02 12 3 12 C3 9.03 3 6.06 3 3 C1.68 2.67 0.36 2.34 -1 2 C-0.67 1.34 -0.34 0.68 0 0 Z " fill="#FFFEFE" transform="translate(79,66)"/>
<path d="M0 0 C2.4375 0.1875 2.4375 0.1875 3.4375 1.1875 C3.625 4.625 3.625 4.625 3.4375 8.1875 C2.7775 8.8475 2.1175 9.5075 1.4375 10.1875 C-1.1875 9.8125 -1.1875 9.8125 -3.5625 9.1875 C-4.1875 5.8125 -4.1875 5.8125 -4.5625 2.1875 C-2.5625 0.1875 -2.5625 0.1875 0 0 Z M-1.5625 2.1875 C-1.8925 3.1775 -2.2225 4.1675 -2.5625 5.1875 C-1.5725 6.1775 -0.5825 7.1675 0.4375 8.1875 C0.7675 6.5375 1.0975 4.8875 1.4375 3.1875 C0.4475 2.8575 -0.5425 2.5275 -1.5625 2.1875 Z " fill="#C9EC2A" transform="translate(41.5625,83.8125)"/>
<path d="M0 0 C1.65 0.33 3.3 0.66 5 1 C5 1.99 5 2.98 5 4 C5.309375 5.0209375 5.309375 5.0209375 5.625 6.0625 C5.74875 6.701875 5.8725 7.34125 6 8 C5.34 8.66 4.68 9.32 4 10 C1.375 9.625 1.375 9.625 -1 9 C-1.80967438 6.08517222 -2.21845993 4.53886783 -1.0625 1.6875 C-0.711875 1.130625 -0.36125 0.57375 0 0 Z M1 2 C1.33 2.66 1.66 3.32 2 4 C2.66 3.67 3.32 3.34 4 3 C3.01 2.67 2.02 2.34 1 2 Z M1 6 C1 6.66 1 7.32 1 8 C1.66 8 2.32 8 3 8 C3 7.34 3 6.68 3 6 C2.34 6 1.68 6 1 6 Z " fill="#C9EC2A" transform="translate(30,84)"/>
<path d="M0 0 C2 3 2 3 3 5 C5.02463255 5.65213292 5.02463255 5.65213292 7 6 C7 4.35 7 2.7 7 1 C7.99 1 8.98 1 10 1 C10.20086443 4.71599191 10.1519437 5.77208445 8 9 C5.0625 9.4375 5.0625 9.4375 2 9 C0.0625 7.3125 0.0625 7.3125 -1 5 C-0.6875 2.25 -0.6875 2.25 0 0 Z " fill="#ECF2F7" transform="translate(185,48)"/>
<path d="M0 0 C0.66 0.33 1.32 0.66 2 1 C0.68 1.99 -0.64 2.98 -2 4 C-1.34 2.68 -0.68 1.36 0 0 Z M-5 4 C-4.01 4 -3.02 4 -2 4 C-1.67 5.98 -1.34 7.96 -1 10 C-2.11375 10.28875 -3.2275 10.5775 -4.375 10.875 C-8.00291092 11.69241329 -8.00291092 11.69241329 -10 14 C-9.49942848 9.61999924 -8.06806466 7.15830185 -5 4 Z " fill="#F5F9DE" transform="translate(18,9)"/>
<path d="M0 0 C1.67542976 0.28604898 3.34385343 0.61781233 5 1 C5.625 3.8125 5.625 3.8125 6 7 C5.01 8.485 5.01 8.485 4 10 C2.35 9.67 0.7 9.34 -1 9 C-1.09765625 2.84765625 -1.09765625 2.84765625 -1 1 C-0.67 0.67 -0.34 0.34 0 0 Z M1 6 C1.66 6.66 2.32 7.32 3 8 C3 7.34 3 6.68 3 6 C2.34 6 1.68 6 1 6 Z " fill="#C9EC2A" transform="translate(117,84)"/>
<path d="M0 0 C7.625 0.875 7.625 0.875 11 2 C10.67 2.99 10.34 3.98 10 5 C6.04 5 2.08 5 -2 5 C-1.34 3.35 -0.68 1.7 0 0 Z " fill="#FEC001" transform="translate(26,2)"/>
<path d="M0 0 C2.625 0.375 2.625 0.375 5 1 C5.125 4.375 5.125 4.375 5 8 C4.34 8.66 3.68 9.32 3 10 C0.875 9.625 0.875 9.625 -1 9 C-1.625 5.625 -1.625 5.625 -2 2 C-1.34 1.34 -0.68 0.68 0 0 Z M1 2 C1 3.98 1 5.96 1 8 C1.66 7.67 2.32 7.34 3 7 C3 5.35 3 3.7 3 2 C2.34 2 1.68 2 1 2 Z " fill="#C9EC2A" transform="translate(109,84)"/>
<path d="M0 0 C2.625 0.375 2.625 0.375 5 1 C5.125 4.375 5.125 4.375 5 8 C4.34 8.66 3.68 9.32 3 10 C0.875 9.625 0.875 9.625 -1 9 C-1.625 5.625 -1.625 5.625 -2 2 C-1.34 1.34 -0.68 0.68 0 0 Z M1 2 C1 3.98 1 5.96 1 8 C1.66 7.67 2.32 7.34 3 7 C3 5.35 3 3.7 3 2 C2.34 2 1.68 2 1 2 Z " fill="#C9EC2A" transform="translate(62,84)"/>
<path d="M0 0 C3 1 3 1 4.1875 3.3125 C5 6 5 6 5 10 C4.34 10 3.68 10 3 10 C2.67 9.34 2.34 8.68 2 8 C1.34 8 0.68 8 0 8 C-0.33 8.66 -0.66 9.32 -1 10 C-1.66 10 -2.32 10 -3 10 C-2.49287967 6.28111761 -1.88391785 3.26545761 0 0 Z " fill="#C9EC2A" transform="translate(4,84)"/>
<path d="M0 0 C1.67542976 0.28604898 3.34385343 0.61781233 5 1 C5.625 3.8125 5.625 3.8125 6 7 C5.01 8.485 5.01 8.485 4 10 C0.125 9.125 0.125 9.125 -1 8 C-1.125 4.5 -1.125 4.5 -1 1 C-0.67 0.67 -0.34 0.34 0 0 Z M1 2 C1 3.65 1 5.3 1 7 C1.99 7.495 1.99 7.495 3 8 C3 6.02 3 4.04 3 2 C2.34 2 1.68 2 1 2 Z " fill="#C9EC2A" transform="translate(100,84)"/>
<path d="M0 0 C1.67542976 0.28604898 3.34385343 0.61781233 5 1 C4.79375 1.763125 4.5875 2.52625 4.375 3.3125 C3.66608797 6.21885944 3.66608797 6.21885944 6 9 C5 10 5 10 1.9375 10.0625 C0.968125 10.041875 -0.00125 10.02125 -1 10 C-0.40072174 6.64404172 0.84622436 4.62198774 3 2 C1.02 2.99 1.02 2.99 -1 4 C-1 1 -1 1 0 0 Z " fill="#C9EC2A" transform="translate(92,84)"/>
<path d="M0 0 C2.625 0.375 2.625 0.375 5 1 C5.33 1.99 5.66 2.98 6 4 C4.35 3.67 2.7 3.34 1 3 C1.33 4.32 1.66 5.64 2 7 C3.32 6.67 4.64 6.34 6 6 C5.67 6.99 5.34 7.98 5 9 C2.625 9.625 2.625 9.625 0 10 C-2 8 -2 8 -2.25 5 C-2 2 -2 2 0 0 Z " fill="#C9EC2A" transform="translate(131,84)"/>
<path d="M0 0 C1.67542976 0.28604898 3.34385343 0.61781233 5 1 C5 3.31 5 5.62 5 8 C3.35 8.66 1.7 9.32 0 10 C-0.19412181 8.52168779 -0.38012131 7.04230684 -0.5625 5.5625 C-0.66691406 4.73878906 -0.77132812 3.91507812 -0.87890625 3.06640625 C-0.91886719 2.38449219 -0.95882812 1.70257813 -1 1 C-0.67 0.67 -0.34 0.34 0 0 Z M1 2 C1.33 2.99 1.66 3.98 2 5 C2.33 4.01 2.66 3.02 3 2 C2.34 2 1.68 2 1 2 Z " fill="#C9EC2A" transform="translate(53,84)"/>
<path d="M0 0 C0.99 0.33 1.98 0.66 3 1 C3 4.3 3 7.6 3 11 C1.68 11 0.36 11 -1 11 C-1.02688151 9.35425434 -1.04634123 7.70838587 -1.0625 6.0625 C-1.07410156 5.14597656 -1.08570313 4.22945313 -1.09765625 3.28515625 C-1 1 -1 1 0 0 Z " fill="#FFFEFE" transform="translate(217,66)"/>
<path d="M0 0 C2.97 0.495 2.97 0.495 6 1 C7.15941038 4.47823115 6.70820884 6.45895578 6 10 C4.02 9.34 2.04 8.68 0 8 C0.33 6.68 0.66 5.36 1 4 C0.34 3.67 -0.32 3.34 -1 3 C-0.01 2.67 0.98 2.34 2 2 C1.34 1.34 0.68 0.68 0 0 Z M3 4 C4 6 4 6 4 6 Z " fill="#FFFEFE" transform="translate(148,10)"/>
<path d="M0 0 C2.125 0.375 2.125 0.375 4 1 C4.625 3.375 4.625 3.375 5 6 C4.34 6.66 3.68 7.32 3 8 C0.875 7.625 0.875 7.625 -1 7 C-1.625 4.625 -1.625 4.625 -2 2 C-1.34 1.34 -0.68 0.68 0 0 Z " fill="#C9EC2A" transform="translate(140,86)"/>
<path d="M0 0 C1.67542976 0.28604898 3.34385343 0.61781233 5 1 C5 3.31 5 5.62 5 8 C3.125 9.0625 3.125 9.0625 1 10 C0.34 9.67 -0.32 9.34 -1 9 C-1.09765625 2.84765625 -1.09765625 2.84765625 -1 1 C-0.67 0.67 -0.34 0.34 0 0 Z M1 2 C1 3.98 1 5.96 1 8 C1.66 7.67 2.32 7.34 3 7 C3 5.35 3 3.7 3 2 C2.34 2 1.68 2 1 2 Z " fill="#C9EC2A" transform="translate(70,84)"/>
<path d="M0 0 C1.6875 3.0625 1.6875 3.0625 3 6 C1.02 6.99 1.02 6.99 -1 8 C-3.25245881 5.31158141 -4.88213958 3.35358125 -6 0 C-3 -1 -3 -1 0 0 Z " fill="#FEC303" transform="translate(11,45)"/>
<path d="M0 0 C3.63 1.32 7.26 2.64 11 4 C11 4.33 11 4.66 11 5 C9.02 5.33 7.04 5.66 5 6 C5.66 6.33 6.32 6.66 7 7 C7 7.66 7 8.32 7 9 C7.66 9.66 8.32 10.32 9 11 C8.01 11.495 8.01 11.495 7 12 C1.33064516 6.62903226 1.33064516 6.62903226 0 3 C0 2.01 0 1.02 0 0 Z " fill="#141D70" transform="translate(9,38)"/>
<path d="M0 0 C0.66 0.33 1.32 0.66 2 1 C1.67 1.66 1.34 2.32 1 3 C4.465 2.505 4.465 2.505 8 2 C8 4.33333333 8 6.66666667 8 9 C7.34 9 6.68 9 6 9 C6 8.34 6 7.68 6 7 C0.52225234 5.41678933 0.52225234 5.41678933 -5 4 C-4.01 3.67 -3.02 3.34 -2 3 C-1.34 2.01 -0.68 1.02 0 0 Z " fill="#8BEAFD" transform="translate(18,16)"/>
<path d="M0 0 C1.65 0.33 3.3 0.66 5 1 C5 2.98 5 4.96 5 7 C3.1875 7.6875 3.1875 7.6875 1 8 C-0.75 6.5625 -0.75 6.5625 -2 5 C-1.34 3.35 -0.68 1.7 0 0 Z " fill="#C9EC2A" transform="translate(246,86)"/>
<path d="M0 0 C0.33 0 0.66 0 1 0 C1 3.63 1 7.26 1 11 C-4 10 -4 10 -5 9 C-5.04063832 7.33382885 -5.042721 5.66611905 -5 4 C-4.0409375 3.8453125 -4.0409375 3.8453125 -3.0625 3.6875 C-2.381875 3.460625 -1.70125 3.23375 -1 3 C-0.67 2.01 -0.34 1.02 0 0 Z M-3 5 C-2.67 6.32 -2.34 7.64 -2 9 C-1.67 7.68 -1.34 6.36 -1 5 C-1.66 5 -2.32 5 -3 5 Z " fill="#C9EC2A" transform="translate(186,83)"/>
<path d="M0 0 C1.67542976 0.28604898 3.34385343 0.61781233 5 1 C5 2.98 5 4.96 5 7 C3.125 7.625 3.125 7.625 1 8 C-1 6 -1 6 -1.1875 3.4375 C-1 1 -1 1 0 0 Z " fill="#C9EC2A" transform="translate(174,86)"/>
<path d="M0 0 C0.99 0.99 1.98 1.98 3 3 C2.67 3.66 2.34 4.32 2 5 C1.34 4.67 0.68 4.34 0 4 C0 5.65 0 7.3 0 9 C-2.31 9 -4.62 9 -7 9 C-5.64978174 4.58110387 -3.73884332 2.65654657 0 0 Z " fill="#FEC20A" transform="translate(42,48)"/>
<path d="M0 0 C0.66 0 1.32 0 2 0 C2 1.65 2 3.3 2 5 C2.66 5 3.32 5 4 5 C4 3.35 4 1.7 4 0 C4.66 0 5.32 0 6 0 C6 2.64 6 5.28 6 8 C4.33388095 8.042721 2.66617115 8.04063832 1 8 C0 7 0 7 -0.0625 3.4375 C-0.041875 2.303125 -0.02125 1.16875 0 0 Z " fill="#C9EC2A" transform="translate(231,86)"/>
<path d="M0 0 C2.125 0.375 2.125 0.375 4 1 C4.625 3.375 4.625 3.375 5 6 C4.34 6.66 3.68 7.32 3 8 C0.875 7.625 0.875 7.625 -1 7 C-1.625 4.625 -1.625 4.625 -2 2 C-1.34 1.34 -0.68 0.68 0 0 Z " fill="#C9EC2A" transform="translate(209,86)"/>
<path d="M0 0 C1.66611905 -0.042721 3.33382885 -0.04063832 5 0 C6 1 6 1 6.0625 4.5625 C6.041875 5.696875 6.02125 6.83125 6 8 C5.34 8 4.68 8 4 8 C4 6.02 4 4.04 4 2 C3.34 2 2.68 2 2 2 C2 3.98 2 5.96 2 8 C1.34 8 0.68 8 0 8 C0 5.36 0 2.72 0 0 Z " fill="#C9EC2A" transform="translate(199,86)"/>
<path d="M0 0 C1.66611905 -0.042721 3.33382885 -0.04063832 5 0 C6 1 6 1 6.0625 4.5625 C6.041875 5.696875 6.02125 6.83125 6 8 C5.34 8 4.68 8 4 8 C4 6.02 4 4.04 4 2 C3.34 2 2.68 2 2 2 C2 3.98 2 5.96 2 8 C1.34 8 0.68 8 0 8 C0 5.36 0 2.72 0 0 Z " fill="#C9EC2A" transform="translate(11,86)"/>
<path d="M0 0 C-0.33 3.3 -0.66 6.6 -1 10 C-1.99 10 -2.98 10 -4 10 C-4.6875 6.6875 -4.6875 6.6875 -5 3 C-3.42599605 0.67647035 -2.82844233 0 0 0 Z " fill="#C9EC2A" transform="translate(167,83)"/>
<path d="M0 0 C1.32 0.33 2.64 0.66 4 1 C3.67 1.33 3.34 1.66 3 2 C2.58297878 4.9157691 2.58297878 4.9157691 3 8 C4.88077873 9.91256712 4.88077873 9.91256712 7 11 C5.68 11.33 4.36 11.66 3 12 C3 11.34 3 10.68 3 10 C1.68 9.67 0.36 9.34 -1 9 C-0.34 9 0.32 9 1 9 C1 7.35 1 5.7 1 4 C-0.32 3.67 -1.64 3.34 -3 3 C-2.01 3 -1.02 3 0 3 C0 2.01 0 1.02 0 0 Z " fill="#5997C3" transform="translate(196,27)"/>
<path d="M0 0 C3.3 0 6.6 0 10 0 C8.25 2 8.25 2 6 4 C4.68 4 3.36 4 2 4 C2 3.34 2 2.68 2 2 C1.34 2 0.68 2 0 2 C0 1.34 0 0.68 0 0 Z " fill="#3CA4EA" transform="translate(25,43)"/>
<path d="M0 0 C0.598125 0.20625 1.19625 0.4125 1.8125 0.625 C1.8125 1.615 1.8125 2.605 1.8125 3.625 C0.8225 3.625 -0.1675 3.625 -1.1875 3.625 C-1.1875 4.285 -1.1875 4.945 -1.1875 5.625 C-0.5275 5.625 0.1325 5.625 0.8125 5.625 C0.8125 6.285 0.8125 6.945 0.8125 7.625 C-0.5075 7.625 -1.8275 7.625 -3.1875 7.625 C-2.8575 5.975 -2.5275 4.325 -2.1875 2.625 C-3.1775 2.295 -4.1675 1.965 -5.1875 1.625 C-2.1875 -0.375 -2.1875 -0.375 0 0 Z " fill="#010758" transform="translate(24.1875,44.375)"/>
<path d="M0 0 C2.97 0.495 2.97 0.495 6 1 C5.67 1.99 5.34 2.98 5 4 C-0.94 4.495 -0.94 4.495 -7 5 C-7.33 3.68 -7.66 2.36 -8 1 C-7.67 1.66 -7.34 2.32 -7 3 C-4.69 3 -2.38 3 0 3 C0 2.01 0 1.02 0 0 Z " fill="#C1F9FC" transform="translate(26,32)"/>
<path d="M0 0 C2.4375 0.1875 2.4375 0.1875 5 1 C6.3125 3.0625 6.3125 3.0625 7 5 C6.2575 4.814375 5.515 4.62875 4.75 4.4375 C2.05009037 4.00796892 0.55368923 4.14877026 -2 5 C-1.125 1.125 -1.125 1.125 0 0 Z " fill="#0B3897" transform="translate(10,31)"/>
<path d="M0 0 C0.99 0 1.98 0 3 0 C3 2.97 3 5.94 3 9 C2.01 9 1.02 9 0 9 C0 6.03 0 3.06 0 0 Z " fill="#C9EC2A" transform="translate(194,84)"/>
<path d="M0 0 C0.66 0 1.32 0 2 0 C2 1.65 2 3.3 2 5 C-3.75 8 -3.75 8 -6 8 C-6 6.68 -6 5.36 -6 4 C-3.03 4.495 -3.03 4.495 0 5 C0 3.35 0 1.7 0 0 Z " fill="#1152A8" transform="translate(45,28)"/>
<path d="M0 0 C0.99 0 1.98 0 3 0 C3 0.66 3 1.32 3 2 C3.99 2 4.98 2 6 2 C5.67 2.99 5.34 3.98 5 5 C4.13375 4.835 3.2675 4.67 2.375 4.5 C-0.81225199 4.02781452 -3.78485027 3.92344882 -7 4 C-7 3.67 -7 3.34 -7 3 C-3.535 2.505 -3.535 2.505 0 2 C0 1.34 0 0.68 0 0 Z " fill="#ACF3FE" transform="translate(26,15)"/>
<path d="M0 0 C0 0.99 0 1.98 0 3 C1.32 3.33 2.64 3.66 4 4 C0.30458414 4.95024979 -2.30458414 4.95024979 -6 4 C-6 3.01 -6 2.02 -6 1 C-4 0 -4 0 0 0 Z " fill="#D2E2EE" transform="translate(199,37)"/>
<path d="M0 0 C0.99 0 1.98 0 3 0 C3 2.97 3 5.94 3 9 C2.01 9 1.02 9 0 9 C0 6.03 0 3.06 0 0 Z " fill="#C9EC2A" transform="translate(158,84)"/>
<path d="M0 0 C0.99 1.32 1.98 2.64 3 4 C2.34 4 1.68 4 1 4 C1 5.32 1 6.64 1 8 C1.66 8.33 2.32 8.66 3 9 C1.68 9 0.36 9 -1 9 C-1.625 5.625 -1.625 5.625 -2 2 C-1.34 1.34 -0.68 0.68 0 0 Z " fill="#C9EC2A" transform="translate(154,84)"/>
<path d="M0 0 C0 2.97 0 5.94 0 9 C-0.99 9.495 -0.99 9.495 -2 10 C-2 7.69 -2 5.38 -2 3 C-2.99 3 -3.98 3 -5 3 C-5 2.34 -5 1.68 -5 1 C-3 0 -3 0 0 0 Z " fill="#C9EC2A" transform="translate(82,84)"/>
<path d="M0 0 C2.12508244 3.18762365 2.5020163 5.26512223 3 9 C2.01 9.495 2.01 9.495 1 10 C0.34 9.67 -0.32 9.34 -1 9 C-1.09765625 2.84765625 -1.09765625 2.84765625 -1 1 C-0.67 0.67 -0.34 0.34 0 0 Z " fill="#FFBC00" transform="translate(4,33)"/>
<path d="M0 0 C0.99 0.66 1.98 1.32 3 2 C3.40843923 4.71203652 3.13336867 7.2437142 3 10 C2.01 9.67 1.02 9.34 0 9 C0 7.35 0 5.7 0 4 C-0.66 3.67 -1.32 3.34 -2 3 C-1.34 2.01 -0.68 1.02 0 0 Z " fill="#C9EC2A" transform="translate(240,84)"/>
<path d="M0 0 C0.99 0.66 1.98 1.32 3 2 C3.40843923 4.71203652 3.13336867 7.2437142 3 10 C2.01 9.67 1.02 9.34 0 9 C0 7.35 0 5.7 0 4 C-0.66 3.67 -1.32 3.34 -2 3 C-1.34 2.01 -0.68 1.02 0 0 Z " fill="#C9EC2A" transform="translate(226,84)"/>
<path d="M0 0 C0.99 0.66 1.98 1.32 3 2 C3.40843923 4.71203652 3.13336867 7.2437142 3 10 C2.01 9.67 1.02 9.34 0 9 C0 7.35 0 5.7 0 4 C-0.66 3.67 -1.32 3.34 -2 3 C-1.34 2.01 -0.68 1.02 0 0 Z " fill="#C9EC2A" transform="translate(216,84)"/>
<path d="M0 0 C0.66 0.33 1.32 0.66 2 1 C1.67 1.66 1.34 2.32 1 3 C1.66 3 2.32 3 3 3 C2.34 4.32 1.68 5.64 1 7 C0.01 7 -0.98 7 -2 7 C-2.33 6.01 -2.66 5.02 -3 4 C-1.5625 1.8125 -1.5625 1.8125 0 0 Z " fill="#FEC001" transform="translate(9,10)"/>
<path d="M0 0 C-0.66 2.97 -1.32 5.94 -2 9 C-3.09658936 5.71023192 -2.79953138 4.28696233 -2 1 C-5.27773504 1.75150023 -5.27773504 1.75150023 -7 5 C-6.67 3.35 -6.34 1.7 -6 0 C-3 -1 -3 -1 0 0 Z " fill="#4088BB" transform="translate(197,48)"/>
<path d="M0 0 C1.65 0.33 3.3 0.66 5 1 C4.67 1.66 4.34 2.32 4 3 C3.34 3 2.68 3 2 3 C1.34 5.97 0.68 8.94 0 12 C-0.33 12 -0.66 12 -1 12 C-1.14285714 3.42857143 -1.14285714 3.42857143 0 0 Z " fill="#FECB0F" transform="translate(2,23)"/>
<path d="M0 0 C1.11375 0.556875 1.11375 0.556875 2.25 1.125 C1.92 2.445 1.59 3.765 1.25 5.125 C0.92 4.465 0.59 3.805 0.25 3.125 C-2.06 3.125 -4.37 3.125 -6.75 3.125 C-6.75 2.465 -6.75 1.805 -6.75 1.125 C-4.02098495 -0.69434337 -3.21400584 -1.02263822 0 0 Z " fill="#DAFBFE" transform="translate(29.75,9.875)"/>
<path d="M0 0 C-0.56371414 3.26954202 -1.49962266 4.82575883 -4 7 C-4.33 6.01 -4.66 5.02 -5 4 C-5.66 3.34 -6.32 2.68 -7 2 C-2.25 0 -2.25 0 0 0 Z " fill="#2F3A6F" transform="translate(46,39)"/>
<path d="M0 0 C1.32 0 2.64 0 4 0 C4 0.66 4 1.32 4 2 C3.34 2 2.68 2 2 2 C2 3.98 2 5.96 2 8 C1.34 8 0.68 8 0 8 C0 5.36 0 2.72 0 0 Z " fill="#C9EC2A" transform="translate(147,86)"/>
<path d="M0 0 C0.66 0 1.32 0 2 0 C2 3.3 2 6.6 2 10 C1.34 10 0.68 10 0 10 C0 6.7 0 3.4 0 0 Z " fill="#C9EC2A" transform="translate(221,84)"/>
<path d="M0 0 C0.66 0 1.32 0 2 0 C2 3.3 2 6.6 2 10 C1.34 10 0.68 10 0 10 C0 6.7 0 3.4 0 0 Z " fill="#C9EC2A" transform="translate(24,84)"/>
<path d="M0 0 C0.66 0 1.32 0 2 0 C2 2.97 2 5.94 2 9 C1.01 9.495 1.01 9.495 0 10 C0 6.7 0 3.4 0 0 Z " fill="#C9EC2A" transform="translate(169,84)"/>
<path d="M0 0 C0.66 0.33 1.32 0.66 2 1 C2 1.99 2 2.98 2 4 C0.02 4.33 -1.96 4.66 -4 5 C-2.25 1.125 -2.25 1.125 0 0 Z " fill="#DDFDFE" transform="translate(38,24)"/>
<path d="M0 0 C2.31 0.66 4.62 1.32 7 2 C6.67 3.65 6.34 5.3 6 7 C3.95880212 5.38405168 1.95927063 3.7143618 0 2 C0 1.34 0 0.68 0 0 Z " fill="#1488E5" transform="translate(12,29)"/>
<path d="M0 0 C1.53202706 0.25195908 3.05257128 0.57596777 4.5625 0.9375 C5.38878906 1.13214844 6.21507812 1.32679687 7.06640625 1.52734375 C8.02353516 1.76130859 8.02353516 1.76130859 9 2 C9 2.33 9 2.66 9 3 C2.375 3.25 2.375 3.25 -1 1 C-0.67 0.67 -0.34 0.34 0 0 Z " fill="#40B2F4" transform="translate(24,29)"/>
<path d="M0 0 C1.32 0.66 2.64 1.32 4 2 C4 2.66 4 3.32 4 4 C2.02 4.99 2.02 4.99 0 6 C-1.125 2.25 -1.125 2.25 0 0 Z " fill="#FFC003" transform="translate(16,5)"/>
<path d="M0 0 C3 3.625 3 3.625 3 7 C1.68 6.34 0.36 5.68 -1 5 C-0.67 3.35 -0.34 1.7 0 0 Z " fill="#FAFBFC" transform="translate(199,30)"/>
<path d="M0 0 C0.66 0 1.32 0 2 0 C2 0.66 2 1.32 2 2 C3.98 2.66 5.96 3.32 8 4 C4.37673261 5.2077558 3.35853631 4.54311128 0 3 C0 2.01 0 1.02 0 0 Z " fill="#59BAF4" transform="translate(11,22)"/>
<path d="M0 0 C0.99 0 1.98 0 3 0 C3 0.66 3 1.32 3 2 C1.68 1.67 0.36 1.34 -1 1 C-0.67 0.67 -0.34 0.34 0 0 Z " fill="#C9EC2A" transform="translate(86,88)"/>
<path d="M0 0 C2 1 2 1 2 1 Z " fill="#FFFEFE" transform="translate(219,11)"/>
</svg>
